<?xml version="1.0" encoding="UTF-8"?>
<!DOCTYPE svg PUBLIC "-//W3C//DTD SVG 1.1//EN" "http://www.w3.org/Graphics/SVG/1.1/DTD/svg11.dtd">
<svg xmlns="http://www.w3.org/2000/svg" version="1.1" width="512px" height="512px" style="shape-rendering:geometricPrecision; text-rendering:geometricPrecision; image-rendering:optimizeQuality; fill-rule:evenodd; clip-rule:evenodd" xmlns:xlink="http://www.w3.org/1999/xlink">
<g><path style="opacity:0.947" fill="#000000" d="M 59.5,-0.5 C 137.5,-0.5 215.5,-0.5 293.5,-0.5C 314.456,5.2944 326.956,18.9611 331,40.5C 331.5,53.1623 331.667,65.8289 331.5,78.5C 351.503,78.3334 371.503,78.5 391.5,79C 396.535,82.0133 397.702,86.1799 395,91.5C 394.097,92.7014 392.931,93.5348 391.5,94C 298.11,94.0072 204.777,94.6739 111.5,96C 108.865,97.9605 107.031,100.461 106,103.5C 105.5,145.499 105.333,187.499 105.5,229.5C 135.55,229.031 165.55,229.531 195.5,231C 211.145,236.101 219.145,246.934 219.5,263.5C 218.721,280.255 210.388,291.088 194.5,296C 164.875,297.46 135.209,297.96 105.5,297.5C 105.175,302.599 105.675,307.599 107,312.5C 108.961,315.135 111.461,316.969 114.5,318C 232.223,318.994 349.889,318.661 467.5,317C 470.135,315.039 471.969,312.539 473,309.5C 473.667,240.833 473.667,172.167 473,103.5C 471.5,99.3333 468.667,96.5 464.5,95C 449.833,94.6667 435.167,94.3333 420.5,94C 415.701,90.9289 414.535,86.7622 417,81.5C 417.903,80.2986 419.069,79.4652 420.5,79C 436.167,78.3333 451.833,78.3333 467.5,79C 478.667,82.1667 485.833,89.3333 489,100.5C 489.667,171.167 489.667,241.833 489,312.5C 485.833,323.667 478.667,330.833 467.5,334C 422.168,334.5 376.835,334.667 331.5,334.5C 331.975,381.539 331.475,428.539 330,475.5C 324.553,494.448 312.386,506.448 293.5,511.5C 215.5,511.5 137.5,511.5 59.5,511.5C 38.5103,505.674 26.0103,492.007 22,470.5C 21.3333,354.5 21.3333,238.5 22,122.5C 24.2258,118.139 27.7258,116.639 32.5,118C 34.6667,118.833 36.1667,120.333 37,122.5C 37.3333,238.167 37.6667,353.833 38,469.5C 42.09,485.921 52.59,494.755 69.5,496C 140.833,496.667 212.167,496.667 283.5,496C 300.418,494.746 310.918,485.913 315,469.5C 315.5,424.501 315.667,379.501 315.5,334.5C 312.167,334.5 308.833,334.5 305.5,334.5C 305.667,359.169 305.5,383.836 305,408.5C 301.987,413.535 297.82,414.702 292.5,412C 291.299,411.097 290.465,409.931 290,408.5C 289.5,383.836 289.333,359.169 289.5,334.5C 230.166,334.667 170.832,334.5 111.5,334C 100.333,330.833 93.1667,323.667 90,312.5C 89.3333,241.833 89.3333,171.167 90,100.5C 93.1667,89.3333 100.333,82.1667 111.5,79C 170.832,78.5 230.166,78.3333 289.5,78.5C 289.667,67.1618 289.5,55.8284 289,44.5C 287.681,42.5125 285.848,41.3459 283.5,41C 270.833,40.3333 258.167,40.3333 245.5,41C 243.475,46.0743 241.641,51.241 240,56.5C 238.437,59.7284 235.937,61.8951 232.5,63C 195.167,63.6667 157.833,63.6667 120.5,63C 117.063,61.8951 114.563,59.7284 113,56.5C 111.359,51.241 109.525,46.0743 107.5,41C 94.8333,40.3333 82.1667,40.3333 69.5,41C 67.1523,41.3459 65.3189,42.5125 64,44.5C 63.3333,185.167 63.3333,325.833 64,466.5C 65.3189,468.487 67.1523,469.654 69.5,470C 140.833,470.667 212.167,470.667 283.5,470C 285.848,469.654 287.681,468.487 289,466.5C 289.333,456.833 289.667,447.167 290,437.5C 293.013,432.465 297.18,431.298 302.5,434C 303.701,434.903 304.535,436.069 305,437.5C 305.912,449.225 305.579,460.892 304,472.5C 301.108,478.392 296.608,482.559 290.5,485C 214.5,485.667 138.5,485.667 62.5,485C 54.7993,481.969 49.966,476.469 48,468.5C 47.3333,326.5 47.3333,184.5 48,42.5C 49.966,34.5309 54.7993,29.0309 62.5,26C 79.8333,25.3333 97.1667,25.3333 114.5,26C 116.587,26.7922 118.421,27.9588 120,29.5C 123.064,35.1921 125.23,41.1921 126.5,47.5C 159.833,47.5 193.167,47.5 226.5,47.5C 227.77,41.1921 229.936,35.1921 233,29.5C 234.579,27.9588 236.413,26.7922 238.5,26C 255.833,25.3333 273.167,25.3333 290.5,26C 296.608,28.4413 301.108,32.6079 304,38.5C 305.425,51.7731 305.925,65.1065 305.5,78.5C 308.833,78.5 312.167,78.5 315.5,78.5C 315.667,66.1622 315.5,53.8288 315,41.5C 312.042,28.5407 304.209,20.0407 291.5,16C 217.524,14.3584 143.524,14.025 69.5,15C 52.59,16.2453 42.09,25.0786 38,41.5C 37.6667,58.5 37.3333,75.5 37,92.5C 36.8898,94.8483 35.7231,96.3483 33.5,97C 30.8333,97.6667 28.1667,97.6667 25.5,97C 23.6667,96.5 22.5,95.3333 22,93.5C 21.3333,75.8333 21.3333,58.1667 22,40.5C 26.0103,18.9926 38.5103,5.32592 59.5,-0.5 Z M 150.5,133.5 C 169.833,133.5 189.167,133.5 208.5,133.5C 208.5,145.5 208.5,157.5 208.5,169.5C 189.167,169.5 169.833,169.5 150.5,169.5C 150.5,157.5 150.5,145.5 150.5,133.5 Z M 315.5,242.5 C 319.182,242.335 322.848,242.501 326.5,243C 333.922,247.516 334.255,252.516 327.5,258C 323.582,259.156 319.582,259.656 315.5,259.5C 315.5,253.833 315.5,248.167 315.5,242.5 Z M 105.5,245.5 C 133.502,245.333 161.502,245.5 189.5,246C 201.212,250.257 205.379,258.423 202,270.5C 199.305,276.27 194.805,279.77 188.5,281C 160.835,281.5 133.169,281.667 105.5,281.5C 105.5,269.5 105.5,257.5 105.5,245.5 Z M 371.5,255.5 C 372.117,255.611 372.617,255.944 373,256.5C 374.802,261.095 376.302,265.762 377.5,270.5C 373.774,270.823 370.107,270.489 366.5,269.5C 368.572,264.95 370.238,260.283 371.5,255.5 Z M 134.5,379.5 C 162.502,379.333 190.502,379.5 218.5,380C 228.713,384.643 230.879,391.809 225,401.5C 223.065,403.102 220.899,404.269 218.5,405C 190.5,405.667 162.5,405.667 134.5,405C 124.287,400.357 122.121,393.191 128,383.5C 130.095,381.875 132.261,380.542 134.5,379.5 Z"/></g>
<g><path style="opacity:0.937" fill="#000000" d="M 144.5,117.5 C 167.836,117.333 191.169,117.5 214.5,118C 219,119.833 222.167,123 224,127.5C 224.667,143.5 224.667,159.5 224,175.5C 222.167,180 219,183.167 214.5,185C 191.167,185.667 167.833,185.667 144.5,185C 140,183.167 136.833,180 135,175.5C 134.333,159.5 134.333,143.5 135,127.5C 137.022,122.98 140.189,119.647 144.5,117.5 Z M 150.5,133.5 C 150.5,145.5 150.5,157.5 150.5,169.5C 169.833,169.5 189.167,169.5 208.5,169.5C 208.5,157.5 208.5,145.5 208.5,133.5C 189.167,133.5 169.833,133.5 150.5,133.5 Z"/></g>
<g><path style="opacity:0.9" fill="#000000" d="M 278.5,135.5 C 282.426,135.047 285.592,136.38 288,139.5C 288.667,146.167 288.667,152.833 288,159.5C 284.58,163.753 280.413,164.587 275.5,162C 271.918,154.344 271.585,146.511 274.5,138.5C 275.901,137.479 277.235,136.479 278.5,135.5 Z"/></g>
<g><path style="opacity:0.889" fill="#000000" d="M 316.5,135.5 C 320.803,134.796 324.303,136.13 327,139.5C 327.667,146.167 327.667,152.833 327,159.5C 323.491,163.613 319.324,164.446 314.5,162C 313.107,160.829 312.273,159.329 312,157.5C 311.333,152.167 311.333,146.833 312,141.5C 312.599,138.746 314.099,136.746 316.5,135.5 Z"/></g>
<g><path style="opacity:0.9" fill="#000000" d="M 345.5,135.5 C 350.998,134.99 354.498,137.323 356,142.5C 357.081,149.054 356.414,155.388 354,161.5C 349.038,164.649 344.705,163.982 341,159.5C 340.333,152.833 340.333,146.167 341,139.5C 342.397,137.93 343.897,136.596 345.5,135.5 Z"/></g>
<g><path style="opacity:0.889" fill="#000000" d="M 401.5,135.5 C 406.28,134.641 409.78,136.308 412,140.5C 412.667,146.5 412.667,152.5 412,158.5C 408.987,163.535 404.82,164.702 399.5,162C 398.299,161.097 397.465,159.931 397,158.5C 396.333,152.5 396.333,146.5 397,140.5C 398.025,138.313 399.525,136.646 401.5,135.5 Z"/></g>
<g><path style="opacity:0.889" fill="#000000" d="M 428.5,135.5 C 433.809,134.565 437.309,136.565 439,141.5C 439.667,147.167 439.667,152.833 439,158.5C 434.486,164.747 429.486,165.08 424,159.5C 423.333,153.167 423.333,146.833 424,140.5C 425.025,138.313 426.525,136.646 428.5,135.5 Z"/></g>
<g><path style="opacity:0.935" fill="#000000" d="M 304.5,226.5 C 313.9,226.114 323.234,226.614 332.5,228C 345.546,234.259 350.38,244.426 347,258.5C 344.401,266.766 338.901,271.932 330.5,274C 325.552,275.05 320.552,275.55 315.5,275.5C 315.891,282.921 315.391,290.254 314,297.5C 308.539,301.796 303.873,301.129 300,295.5C 299.333,274.167 299.333,252.833 300,231.5C 301.025,229.313 302.525,227.646 304.5,226.5 Z M 315.5,242.5 C 315.5,248.167 315.5,253.833 315.5,259.5C 319.582,259.656 323.582,259.156 327.5,258C 334.255,252.516 333.922,247.516 326.5,243C 322.848,242.501 319.182,242.335 315.5,242.5 Z"/></g>
<g><path style="opacity:0.93" fill="#000000" d="M 368.5,226.5 C 375.231,225.448 379.731,228.114 382,234.5C 388.47,252.244 395.137,269.911 402,287.5C 403.999,297.502 400.166,301.335 390.5,299C 387.847,295.568 385.847,291.735 384.5,287.5C 376.521,286.335 368.521,286.168 360.5,287C 358.933,290.525 357.267,294.025 355.5,297.5C 350.241,301.725 345.741,301.058 342,295.5C 341.333,293.167 341.333,290.833 342,288.5C 349.389,268.722 357.056,249.055 365,229.5C 366.145,228.364 367.312,227.364 368.5,226.5 Z M 371.5,255.5 C 370.238,260.283 368.572,264.95 366.5,269.5C 370.107,270.489 373.774,270.823 377.5,270.5C 376.302,265.762 374.802,261.095 373,256.5C 372.617,255.944 372.117,255.611 371.5,255.5 Z"/></g>
<g><path style="opacity:0.92" fill="#000000" d="M 400.5,226.5 C 403.649,226.211 406.649,226.711 409.5,228C 413.877,234.587 418.377,241.087 423,247.5C 427.13,240.739 431.63,234.239 436.5,228C 445.661,225.491 449.495,228.991 448,238.5C 442.727,247.437 437.06,256.103 431,264.5C 430.667,274.833 430.333,285.167 430,295.5C 426.127,301.129 421.461,301.796 416,297.5C 414.735,286.572 414.068,275.572 414,264.5C 408.333,255.833 402.667,247.167 397,238.5C 395.593,233.643 396.76,229.643 400.5,226.5 Z"/></g>
<g><path style="opacity:0.932" fill="#000000" d="M 132.5,363.5 C 161.835,363.333 191.169,363.5 220.5,364C 235.876,367.235 243.876,376.735 244.5,392.5C 243.876,408.265 235.876,417.765 220.5,421C 191.167,421.667 161.833,421.667 132.5,421C 115.334,416.485 107.501,405.319 109,387.5C 111.68,374.321 119.514,366.321 132.5,363.5 Z M 134.5,379.5 C 132.261,380.542 130.095,381.875 128,383.5C 122.121,393.191 124.287,400.357 134.5,405C 162.5,405.667 190.5,405.667 218.5,405C 220.899,404.269 223.065,403.102 225,401.5C 230.879,391.809 228.713,384.643 218.5,380C 190.502,379.5 162.502,379.333 134.5,379.5 Z"/></g>
</svg>
